<svg width="42" height="42" viewBox="0 0 42 42" fill="none" xmlns="http://www.w3.org/2000/svg">
<path d="M41.874 12.3433C41.8394 10.601 41.5096 8.87709 40.8987 7.245C40.3707 5.84365 39.5433 4.57436 38.4743 3.52567C37.4256 2.45666 36.1563 1.62931 34.755 1.10133C33.1236 0.49061 31.4006 0.160828 29.659 0.126C27.4167 0.0233334 26.7027 0 21 0C15.2973 0 14.5833 0.0233334 12.3433 0.126C10.601 0.160565 8.87709 0.490352 7.245 1.10133C5.84282 1.62901 4.5727 2.45637 3.52333 3.52567C2.45432 4.57436 1.62698 5.84365 1.099 7.245C0.488277 8.87635 0.158495 10.5994 0.123667 12.341C0.0233333 14.5833 0 15.2973 0 21C0 26.7027 0.0233334 27.4167 0.126 29.6567C0.160565 31.399 0.490352 33.1229 1.10133 34.755C1.62931 36.1563 2.45666 37.4256 3.52567 38.4743C4.57431 39.5434 5.84362 40.3708 7.245 40.8987C8.87635 41.5094 10.5994 41.8392 12.341 41.874C14.5833 41.9767 15.2973 42 21 42C26.7027 42 27.4167 41.9767 29.6567 41.874C31.399 41.8394 33.1229 41.5096 34.755 40.8987C36.1506 40.3592 37.418 39.5339 38.476 38.476C39.5339 37.418 40.3592 36.1506 40.8987 34.755C41.5094 33.1236 41.8392 31.4006 41.874 29.659C41.9767 27.4167 42 26.7027 42 21C42 15.2973 41.9767 14.5833 41.874 12.3433ZM38.094 29.4863C38.0779 30.8171 37.8332 32.1351 37.3707 33.383C37.0216 34.2891 36.4867 35.1121 35.8003 35.7989C35.1139 36.4857 34.2912 37.0211 33.3853 37.3707C32.1367 37.8334 30.8178 38.0781 29.4863 38.094C27.2697 38.1943 26.607 38.2153 21 38.2153C15.393 38.2153 14.728 38.1943 12.5137 38.094C11.1829 38.0779 9.86487 37.8332 8.617 37.3707C7.70393 37.0346 6.87787 36.498 6.19967 35.8003C5.50233 35.1228 4.96573 34.2976 4.62933 33.3853C4.16651 32.1367 3.92183 30.8179 3.906 29.4863C3.80567 27.2697 3.78467 26.607 3.78467 21C3.78467 15.393 3.80567 14.728 3.906 12.5137C3.92215 11.1829 4.16682 9.86487 4.62933 8.617C4.96542 7.70393 5.50204 6.87787 6.19967 6.19967C6.8772 5.50233 7.70243 4.96573 8.61467 4.62933C9.86327 4.16655 11.1821 3.92188 12.5137 3.906C14.7303 3.80567 15.393 3.78467 21 3.78467C26.607 3.78467 27.272 3.80567 29.4863 3.906C30.8171 3.92215 32.1351 4.16682 33.383 4.62933C34.2961 4.96542 35.1221 5.50204 35.8003 6.19967C36.4977 6.8772 37.0343 7.70243 37.3707 8.61467C37.8334 9.86327 38.0781 11.1821 38.094 12.5137C38.1943 14.7303 38.2153 15.393 38.2153 21C38.2153 26.607 38.1943 27.272 38.094 29.4863ZM21 10.2153C18.867 10.2153 16.7819 10.8478 15.0084 12.0329C13.2348 13.2179 11.8525 14.9022 11.0363 16.8729C10.22 18.8435 10.0064 21.012 10.4226 23.104C10.8387 25.196 11.8658 27.1176 13.3741 28.6259C14.8824 30.1342 16.804 31.1613 18.896 31.5774C20.988 31.9936 23.1565 31.78 25.1271 30.9637C27.0978 30.1475 28.7821 28.7652 29.9671 26.9916C31.1522 25.2181 31.7847 23.133 31.7847 21C31.7847 18.1397 30.6484 15.3966 28.6259 13.3741C26.6034 11.3516 23.8603 10.2153 21 10.2153ZM21 28C19.6155 28 18.2622 27.5895 17.111 26.8203C15.9599 26.0511 15.0627 24.9579 14.5328 23.6788C14.003 22.3997 13.8644 20.9922 14.1345 19.6344C14.4046 18.2765 15.0713 17.0292 16.0503 16.0503C17.0292 15.0713 18.2765 14.4046 19.6344 14.1345C20.9922 13.8644 22.3997 14.003 23.6788 14.5328C24.9579 15.0627 26.0511 15.9599 26.8203 17.111C27.5895 18.2622 28 19.6155 28 21C28 22.8565 27.2625 24.637 25.9497 25.9497C24.637 27.2625 22.8565 28 21 28ZM34.7293 9.79067C34.7293 10.2891 34.5815 10.7763 34.3046 11.1907C34.0277 11.6051 33.6342 11.9281 33.1737 12.1188C32.7132 12.3096 32.2065 12.3595 31.7177 12.2622C31.2289 12.165 30.7799 11.925 30.4274 11.5726C30.075 11.2201 29.835 10.7711 29.7378 10.2823C29.6405 9.79346 29.6904 9.28677 29.8812 8.8263C30.0719 8.36583 30.3949 7.97226 30.8093 7.69536C31.2237 7.41846 31.7109 7.27067 32.2093 7.27067C32.8777 7.27067 33.5187 7.53617 33.9912 8.00876C34.4638 8.48135 34.7293 9.12232 34.7293 9.79067Z" fill="white"/>
</svg>
