<svg width="58" height="58" viewBox="0 0 58 58" fill="none" xmlns="http://www.w3.org/2000/svg">
<path d="M45.9168 9.66663H12.0835C10.1607 9.66663 8.31661 10.4305 6.95697 11.7901C5.59733 13.1497 4.8335 14.9938 4.8335 16.9166V41.0833C4.8335 43.0061 5.59733 44.8502 6.95697 46.2098C8.31661 47.5695 10.1607 48.3333 12.0835 48.3333H45.9168C47.8396 48.3333 49.6837 47.5695 51.0434 46.2098C52.403 44.8502 53.1668 43.0061 53.1668 41.0833V16.9166C53.1668 14.9938 52.403 13.1497 51.0434 11.7901C49.6837 10.4305 47.8396 9.66663 45.9168 9.66663ZM44.2977 14.5L29.0002 25.9791L13.7027 14.5H44.2977ZM45.9168 43.5H12.0835C11.4426 43.5 10.8279 43.2453 10.3747 42.7921C9.92144 42.3389 9.66683 41.7242 9.66683 41.0833V17.5208L27.5502 30.9333C27.9685 31.247 28.4773 31.4166 29.0002 31.4166C29.5231 31.4166 30.0318 31.247 30.4502 30.9333L48.3335 17.5208V41.0833C48.3335 41.7242 48.0789 42.3389 47.6257 42.7921C47.1725 43.2453 46.5578 43.5 45.9168 43.5Z" fill="white"/>
</svg>
