<svg width="82" height="50" viewBox="0 0 82 50" fill="none" xmlns="http://www.w3.org/2000/svg">
<path d="M7.69579 31.4216C12.6148 31.4216 15.5172 32.5196 15.5172 36.627C15.5172 41.0743 12.0896 42.2258 7.01397 42.2258H6.80386V49.2377H10.0729V49.7342H0V49.2377H1.69942V31.9201H0V31.4237H7.69579V31.4216ZM6.80592 41.7294H7.35591C9.55383 41.7294 10.1285 40.2112 10.1285 37.177V35.9205C10.1285 32.9645 9.50027 31.9181 7.51246 31.9181H6.80592V41.7294Z" fill="#4EB7BC"/>
<path d="M22.6588 37.0205C27.0546 37.0205 29.1475 39.0866 29.1475 43.3259C29.1475 47.6166 27.1597 49.9958 22.5023 49.9958C18.1064 49.9958 15.8838 47.6414 15.8838 43.5607C15.8838 39.2699 18.4484 37.0205 22.6588 37.0205ZM24.1255 42.3577C24.1255 39.5315 24.0472 37.4922 22.5826 37.4922C20.9862 37.4922 20.9079 39.5336 20.9079 42.4895V44.5309C20.9079 47.5651 20.9594 49.5282 22.5558 49.5282C24.0472 49.5282 24.1255 47.9854 24.1255 44.5845V42.3577Z" fill="#4EB7BC"/>
<path d="M36.1863 37.2823V49.2647H37.6509V49.7364H29.8809V49.2647H31.3187V37.754H29.7759V37.2823H36.1863ZM33.8318 30.6123C35.453 30.6123 36.4211 31.4239 36.4211 33.0183C36.4211 34.4046 35.6631 35.4778 33.7783 35.4778C31.6586 35.4778 31.1622 34.143 31.1622 33.045C31.1622 31.7617 31.8687 30.6123 33.8318 30.6123Z" fill="#4EB7BC"/>
<path d="M45.0276 37.0205C49.1351 37.0205 50.888 39.0866 50.7315 42.986H43.355V44.0056C43.355 47.0934 43.905 49.1863 46.4428 49.1863C48.3791 49.1863 49.6871 47.9565 50.2618 45.9419L50.7335 46.0202C50.132 48.2696 48.7725 49.9958 45.0564 49.9958C40.399 49.9958 38.3062 47.3283 38.3062 43.5339C38.3062 39.0083 41.3919 37.0205 45.0276 37.0205ZM46.0761 42.4628V41.1815C46.0761 38.4336 45.866 37.519 44.7948 37.519C43.8782 37.519 43.3817 38.4089 43.3817 41.1815V42.4628H46.0761Z" fill="#4EB7BC"/>
<path d="M52.0146 45.3137H52.3278C53.2959 48.5044 54.8923 49.4211 57.0367 49.4211C58.973 49.4211 59.7043 48.7146 59.7043 47.7196C59.7043 46.5434 58.423 46.2818 56.4352 45.7318C54.3423 45.1571 52.0146 44.3455 52.0146 41.441C52.0146 38.7735 53.8459 37.0205 56.6185 37.0205C57.77 37.0205 58.5548 37.3089 59.2614 37.622C59.5745 37.7538 59.6795 37.8321 59.9947 37.8321C60.3882 37.8321 60.5694 37.622 60.9093 36.969H61.1977V40.9714H60.8846C59.9432 38.5654 58.6084 37.5705 56.7504 37.5705C55.0242 37.5705 54.3176 38.277 54.3176 39.0886C54.3176 40.2916 55.8873 40.58 57.6135 41.0517C59.6795 41.6017 61.9825 42.438 61.9825 45.5258C61.9825 48.5086 60.0462 49.9999 57.0903 49.9999C55.8337 49.9999 54.9459 49.7383 53.951 49.2419C53.7944 49.1368 53.5575 49.0318 53.4545 49.0318C53.1146 49.0318 52.748 49.2666 52.3298 49.9999H52.0167V45.3137H52.0146Z" fill="#4EB7BC"/>
<path d="M69.0705 37.2823V49.2647H70.5351V49.7364H62.7651V49.2647H64.205V37.754H62.6621V37.2823H69.0705ZM66.716 30.6123C68.3371 30.6123 69.3053 31.4239 69.3053 33.0183C69.3053 34.4046 68.5473 35.4778 66.6624 35.4778C64.5428 35.4778 64.0464 34.143 64.0464 33.045C64.0484 31.7617 64.755 30.6123 66.716 30.6123Z" fill="#4EB7BC"/>
<path d="M71.6621 45.3137H71.9752C72.9434 48.5044 74.5398 49.4211 76.6842 49.4211C78.6205 49.4211 79.3517 48.7146 79.3517 47.7196C79.3517 46.5434 78.0705 46.2818 76.0827 45.7318C73.9898 45.1571 71.6621 44.3455 71.6621 41.441C71.6621 38.7735 73.4934 37.0205 76.266 37.0205C77.4175 37.0205 78.2023 37.3089 78.9088 37.622C79.2219 37.7538 79.327 37.8321 79.6422 37.8321C80.0356 37.8321 80.2169 37.622 80.5568 36.969H80.8452V40.9714H80.532C79.5907 38.5654 78.2559 37.5705 76.3978 37.5705C74.6716 37.5705 73.9651 38.277 73.9651 39.0886C73.9651 40.2916 75.5347 40.58 77.2609 41.0517C79.327 41.6017 81.63 42.438 81.63 45.5258C81.63 48.5086 79.6937 49.9999 76.7377 49.9999C75.4812 49.9999 74.5933 49.7383 73.5984 49.2419C73.4419 49.1368 73.205 49.0318 73.102 49.0318C72.7621 49.0318 72.3954 49.2666 71.9773 49.9999H71.6642V45.3137H71.6621Z" fill="#4EB7BC"/>
<path d="M21.7444 21.1552C20.5311 20.0408 19.9749 19.2786 19.1468 16.9654C18.809 19.499 21.9463 22.5312 21.3509 22.3808C18.5886 21.6805 16.3351 17.6595 15.8613 16.5266C15.3875 15.3916 26.1587 13.8487 34.1388 12.551C42.1189 11.2532 51.0815 11.4386 57.3415 11.5725C63.6037 11.7064 70.2283 12.5036 73.1039 13.2781C70.2592 11.8774 69.2313 11.4654 64.4894 10.6085C58.2747 9.48791 46.9081 9.79071 42.8254 9.92461C37.344 10.1059 27.5471 11.6982 22.1481 12.9547C16.7512 14.2113 14.5244 14.5326 12.3224 15.1053C10.1204 15.6779 7.7597 16.9036 7.7597 16.9036L3.09814 15.8221C3.09814 15.8221 12.104 12.9774 14.9014 12.5798C15.9169 10.5982 15.7377 10.2418 18.0366 7.65871C19.2004 6.35274 22.179 4.53178 23.8743 4.02917C23.8743 4.02917 22.2058 6.2518 21.0996 9.93903C22.0678 9.03679 23.5118 6.56079 26.8117 4.31549C28.3752 3.25052 30.7709 2.40391 32.2849 2.54604C30.6061 4.49677 29.8748 9.33959 30.4639 9.25308C34.0152 1.95691 38.2998 0.992872 42.605 0.61591C48.8197 0.0720961 52.0641 0.442879 54.606 0C51.957 2.46158 51.1804 3.72842 49.8991 5.1168C48.6158 6.50517 48.4283 7.1767 48.4283 7.1767C48.4283 7.1767 50.8858 3.87468 57.4796 2.69847C64.0733 1.52227 68.3126 3.97767 70.0882 5.05088C71.8618 6.12409 72.5024 6.73588 72.5024 6.73588C72.5024 6.73588 69.7566 7.29823 68.6875 8.3323C67.6205 9.36637 71.8515 7.13756 74.2781 8.74634C76.7046 10.3572 79.4093 13.8467 80.5237 14.6541C79.228 16.4174 75.9548 18.5329 73.8105 19.4661C71.6661 20.4013 69.4908 21.147 66.9736 21.7464C64.4544 22.3458 59.5312 22.1975 56.9666 20.9554C54.4 19.7133 51.2669 15.9951 51.2669 15.9951C51.2669 15.9951 53.1414 20.0119 55.259 21.3756C52.9952 22.8938 47.59 22.4406 44.4424 20.9451C41.2949 19.4496 38.4378 16.4195 38.4378 16.4195C38.4378 16.4195 39.6861 19.6865 42.434 21.0584C41.1672 21.9833 38.1453 22.3808 35.5189 22.3973C33.7845 22.4076 31.2426 22.0986 28.5256 21.3797C26.1999 20.7659 23.2728 18.4444 23.2728 18.4444C23.2728 18.4444 24.7127 19.8925 25.0011 21.6949C25.2895 23.4994 24.6571 24.0185 24.6571 24.0185C24.6571 24.0185 24.2801 23.178 23.1451 22.249" fill="#4EB7BC"/>
</svg>
