<svg width="254" height="156" viewBox="0 0 254 156" fill="none" xmlns="http://www.w3.org/2000/svg">
<path d="M23.9463 97.7722C39.2524 97.7722 48.2836 101.189 48.2836 113.969C48.2836 127.808 37.618 131.391 21.8247 131.391H21.1709V153.209H31.343V154.754H0V153.209H5.28793V99.3233H0V97.7786H23.9463V97.7722ZM21.1773 129.846H22.8887C29.7278 129.846 31.5161 125.122 31.5161 115.681V111.771C31.5161 102.573 29.5611 99.3169 23.3758 99.3169H21.1773V129.846Z" fill="white"/>
<path d="M70.5058 115.194C84.1839 115.194 90.696 121.622 90.696 134.813C90.696 148.165 84.5108 155.568 70.0186 155.568C56.3405 155.568 49.4246 148.242 49.4246 135.544C49.4246 122.193 57.4045 115.194 70.5058 115.194ZM75.0694 131.801C75.0694 123.007 74.8258 116.661 70.2686 116.661C65.3012 116.661 65.0576 123.013 65.0576 132.211V138.563C65.0576 148.004 65.2178 154.113 70.1853 154.113C74.8258 154.113 75.0694 149.312 75.0694 138.73V131.801Z" fill="white"/>
<path d="M112.598 116.007V153.292H117.155V154.76H92.9778V153.292H97.4517V117.475H92.6509V116.007H112.598ZM105.271 95.2532C110.316 95.2532 113.328 97.7786 113.328 102.74C113.328 107.053 110.97 110.393 105.105 110.393C98.5093 110.393 96.9645 106.239 96.9645 102.823C96.9645 98.8297 99.163 95.2532 105.271 95.2532Z" fill="white"/>
<path d="M140.108 115.194C152.888 115.194 158.343 121.622 157.856 133.756H134.903V136.929C134.903 146.537 136.614 153.049 144.511 153.049C150.536 153.049 154.606 149.222 156.394 142.954L157.862 143.197C155.991 150.196 151.76 155.568 140.197 155.568C125.705 155.568 119.193 147.267 119.193 135.461C119.193 121.379 128.795 115.194 140.108 115.194ZM143.37 132.128V128.141C143.37 119.591 142.716 116.745 139.383 116.745C136.531 116.745 134.986 119.514 134.986 128.141V132.128H143.37Z" fill="white"/>
<path d="M161.849 140.999H162.823C165.836 150.927 170.803 153.779 177.476 153.779C183.501 153.779 185.776 151.581 185.776 148.485C185.776 144.825 181.789 144.011 175.604 142.3C169.092 140.511 161.849 137.986 161.849 128.948C161.849 120.648 167.547 115.193 176.175 115.193C179.758 115.193 182.2 116.091 184.398 117.065C185.372 117.475 185.699 117.719 186.68 117.719C187.904 117.719 188.468 117.065 189.526 115.033H190.423V127.487H189.449C186.52 120.001 182.366 116.905 176.585 116.905C171.214 116.905 169.015 119.103 169.015 121.629C169.015 125.372 173.899 126.269 179.27 127.737C185.699 129.448 192.865 132.051 192.865 141.659C192.865 150.94 186.84 155.58 177.642 155.58C173.733 155.58 170.97 154.766 167.874 153.222C167.387 152.895 166.65 152.568 166.329 152.568C165.272 152.568 164.131 153.299 162.83 155.58H161.856V140.999H161.849Z" fill="white"/>
<path d="M214.921 116.007V153.292H219.478V154.76H195.301V153.292H199.781V117.475H194.98V116.007H214.921ZM207.595 95.2532C212.639 95.2532 215.651 97.7786 215.651 102.74C215.651 107.053 213.293 110.393 207.428 110.393C200.832 110.393 199.288 106.239 199.288 102.823C199.294 98.8297 201.493 95.2532 207.595 95.2532Z" fill="white"/>
<path d="M222.984 140.999H223.958C226.971 150.927 231.938 153.779 238.611 153.779C244.636 153.779 246.911 151.581 246.911 148.485C246.911 144.825 242.924 144.011 236.739 142.3C230.227 140.511 222.984 137.986 222.984 128.948C222.984 120.648 228.682 115.193 237.309 115.193C240.892 115.193 243.334 116.091 245.533 117.065C246.507 117.475 246.834 117.719 247.815 117.719C249.039 117.719 249.603 117.065 250.661 115.033H251.558V127.487H250.584C247.654 120.001 243.501 116.905 237.72 116.905C232.348 116.905 230.15 119.103 230.15 121.629C230.15 125.372 235.034 126.269 240.405 127.737C246.834 129.448 254 132.051 254 141.659C254 150.94 247.975 155.58 238.777 155.58C234.867 155.58 232.105 154.766 229.009 153.222C228.522 152.895 227.785 152.568 227.464 152.568C226.407 152.568 225.266 153.299 223.965 155.58H222.99V140.999H222.984Z" fill="white"/>
<path d="M67.6599 65.8267C63.8847 62.3591 62.1541 59.9875 59.5774 52.7895C58.5262 60.6734 68.2881 70.1083 66.4357 69.6404C57.8404 67.4611 50.8283 54.9496 49.3541 51.4243C47.8799 47.8926 81.3957 43.0918 106.227 39.0537C131.057 35.0157 158.946 35.5926 178.424 36.0092C197.91 36.4258 218.523 38.9063 227.471 41.3163C218.619 36.9578 215.421 35.6759 200.666 33.0095C181.328 29.5227 145.96 30.4649 133.256 30.8815C116.2 31.4455 85.7158 36.4002 68.9162 40.31C52.123 44.2199 45.1942 45.2198 38.3424 47.0017C31.4905 48.7835 24.1451 52.5973 24.1451 52.5973L9.64014 49.2322C9.64014 49.2322 37.6629 40.3805 46.3672 39.1435C49.5271 32.9774 48.9695 31.8686 56.1226 23.8309C59.7441 19.7672 69.0124 14.1011 74.2875 12.5372C74.2875 12.5372 69.0957 19.4532 65.6537 30.9264C68.6662 28.119 73.1594 20.4146 83.4276 13.4281C88.2925 10.1144 95.7468 7.48002 100.458 7.92228C95.2341 13.9922 92.9587 29.0612 94.7918 28.792C105.842 6.08913 119.174 3.08943 132.57 1.91647C151.908 0.224335 162.003 1.37807 169.912 0C161.67 7.65948 159.253 11.6014 155.266 15.9215C151.273 20.2415 150.69 22.3311 150.69 22.3311C150.69 22.3311 158.337 12.0565 178.854 8.39659C199.371 4.7367 212.562 12.377 218.087 15.7164C223.606 19.0558 225.599 20.9594 225.599 20.9594C225.599 20.9594 217.055 22.7092 213.729 25.9269C210.408 29.1445 223.574 22.2093 231.124 27.2152C238.675 32.2275 247.091 43.0854 250.558 45.598C246.526 51.0846 236.342 57.6673 229.669 60.5708C222.997 63.4808 216.228 65.801 208.396 67.6662C200.557 69.5314 185.238 69.07 177.258 65.205C169.271 61.34 159.522 49.7706 159.522 49.7706C159.522 49.7706 165.355 62.2694 171.944 66.5125C164.9 71.2364 148.081 69.8263 138.287 65.1729C128.494 60.5195 119.603 51.091 119.603 51.091C119.603 51.091 123.488 61.2566 132.038 65.5254C128.096 68.4034 118.693 69.6404 110.521 69.6917C105.124 69.7237 97.2146 68.7623 88.7604 66.5253C81.5239 64.6153 72.4159 57.3916 72.4159 57.3916C72.4159 57.3916 76.8962 61.8976 77.7935 67.506C78.6909 73.1208 76.7231 74.736 76.7231 74.736C76.7231 74.736 75.5502 72.1209 72.0185 69.2302" fill="white"/>
</svg>
